<svg xmlns="http://www.w3.org/2000/svg" xmlns:xlink="http://www.w3.org/1999/xlink" width="500" zoomAndPan="magnify" viewBox="0 0 375 149.999998" height="200" preserveAspectRatio="xMidYMid meet" version="1.0"><defs><g/></defs><g fill="#ff00ff" fill-opacity="1"><g transform="translate(5.058731, 102.292825)"><g><path d="M 20.941406 -47.753906 C 19.054688 -47.753906 17.617188 -49.191406 17.949219 -51.074219 L 19.941406 -69.6875 C 20.054688 -71.574219 21.714844 -73.011719 23.597656 -73.011719 L 29.804688 -73.011719 C 31.6875 -73.011719 32.90625 -71.574219 32.796875 -69.6875 L 31.132812 -54.730469 L 39.332031 -54.730469 L 40.992188 -69.800781 C 41.324219 -72.792969 40.441406 -75.5625 38.335938 -77.886719 C 36.339844 -80.105469 33.792969 -81.210938 30.691406 -81.210938 L 24.484375 -81.210938 C 18.28125 -81.210938 12.296875 -76.003906 11.742188 -69.6875 L 9.75 -51.074219 C 9.195312 -44.539062 13.738281 -39.554688 20.054688 -39.554688 L 26.257812 -39.554688 C 28.140625 -39.554688 29.582031 -38.113281 29.25 -36.230469 L 26.589844 -11.523438 C 26.480469 -9.640625 24.816406 -8.199219 22.933594 -8.199219 L 16.730469 -8.199219 C 14.847656 -8.199219 13.628906 -9.640625 13.738281 -11.523438 L 15.398438 -26.480469 L 7.203125 -26.480469 L 5.539062 -11.523438 C 4.984375 -4.984375 9.640625 0 15.953125 0 L 22.160156 0 C 28.472656 0 34.234375 -4.984375 34.789062 -11.523438 L 37.449219 -36.230469 C 38.003906 -42.542969 33.460938 -47.753906 27.144531 -47.753906 Z M 20.941406 -47.753906 "/></g></g></g><g fill="#ff00ff" fill-opacity="1"><g transform="translate(43.167813, 102.292825)"><g><path d="M 35.34375 -17.503906 L 40.882812 -69.6875 C 41.4375 -76.003906 37.003906 -81.210938 30.691406 -81.210938 L 24.375 -81.210938 C 18.058594 -81.210938 12.296875 -76.003906 11.742188 -69.6875 L 5.539062 -11.523438 C 4.984375 -4.984375 9.527344 0 15.84375 0 L 22.160156 0 C 27.144531 0 31.6875 -3.214844 33.792969 -7.644531 L 40.328125 -2.105469 L 41.4375 -12.519531 Z M 27.808594 -23.820312 L 22.046875 -28.804688 L 20.941406 -18.390625 L 26.703125 -13.515625 L 26.480469 -11.523438 C 26.367188 -9.640625 24.707031 -8.199219 22.933594 -8.199219 L 16.617188 -8.199219 C 14.847656 -8.199219 13.628906 -9.640625 13.738281 -11.523438 L 19.941406 -69.6875 C 20.054688 -71.574219 21.714844 -73.011719 23.488281 -73.011719 L 29.804688 -73.011719 C 31.578125 -73.011719 32.796875 -71.574219 32.683594 -69.6875 Z M 27.808594 -23.820312 "/></g></g></g><g fill="#ff00ff" fill-opacity="1"><g transform="translate(87.813048, 102.292825)"><g><path d="M 21.160156 -81.210938 L 12.960938 -81.210938 L 4.433594 0 L 33.570312 0 L 34.347656 -8.199219 L 13.40625 -8.199219 Z M 21.160156 -81.210938 "/></g></g></g><g fill="#ff00ff" fill-opacity="1"><g transform="translate(125.811352, 102.292825)"><g><path d="M 11.742188 -69.910156 L 18.613281 -69.910156 L 19.832031 -81.210938 L 12.960938 -81.210938 Z M 11.742188 -69.910156 "/></g></g></g><g fill="#ff00ff" fill-opacity="1"><g transform="translate(141.542427, 102.292825)"><g><path d="M 12.078125 -73.011719 L 26.257812 -73.011719 L 18.613281 0 L 26.8125 0 L 34.457031 -73.011719 L 48.75 -73.011719 L 49.636719 -81.210938 L 12.960938 -81.210938 Z M 12.078125 -73.011719 "/></g></g></g><g fill="#ff00ff" fill-opacity="1"><g transform="translate(187.073925, 102.292825)"><g><path d="M 40.550781 -81.210938 L 12.960938 -81.210938 L 4.433594 0 L 32.019531 0 L 32.796875 -8.199219 L 13.40625 -8.199219 L 16.730469 -39.554688 L 29.25 -39.554688 L 30.136719 -47.753906 L 17.617188 -47.753906 L 20.273438 -73.011719 L 39.664062 -73.011719 Z M 40.550781 -81.210938 "/></g></g></g><g fill="#ff00ff" fill-opacity="1"><g transform="translate(223.52128, 102.292825)"><g><path d="M 20.941406 -47.753906 C 19.054688 -47.753906 17.617188 -49.191406 17.949219 -51.074219 L 19.941406 -69.6875 C 20.054688 -71.574219 21.714844 -73.011719 23.597656 -73.011719 L 29.804688 -73.011719 C 31.6875 -73.011719 32.90625 -71.574219 32.796875 -69.6875 L 31.132812 -54.730469 L 39.332031 -54.730469 L 40.992188 -69.800781 C 41.324219 -72.792969 40.441406 -75.5625 38.335938 -77.886719 C 36.339844 -80.105469 33.792969 -81.210938 30.691406 -81.210938 L 24.484375 -81.210938 C 18.28125 -81.210938 12.296875 -76.003906 11.742188 -69.6875 L 9.75 -51.074219 C 9.195312 -44.539062 13.738281 -39.554688 20.054688 -39.554688 L 26.257812 -39.554688 C 28.140625 -39.554688 29.582031 -38.113281 29.25 -36.230469 L 26.589844 -11.523438 C 26.480469 -9.640625 24.816406 -8.199219 22.933594 -8.199219 L 16.730469 -8.199219 C 14.847656 -8.199219 13.628906 -9.640625 13.738281 -11.523438 L 15.398438 -26.480469 L 7.203125 -26.480469 L 5.539062 -11.523438 C 4.984375 -4.984375 9.640625 0 15.953125 0 L 22.160156 0 C 28.472656 0 34.234375 -4.984375 34.789062 -11.523438 L 37.449219 -36.230469 C 38.003906 -42.542969 33.460938 -47.753906 27.144531 -47.753906 Z M 20.941406 -47.753906 "/></g></g></g><g fill="#ff00ff" fill-opacity="1"><g transform="translate(261.630361, 102.292825)"><g><path d="M 12.078125 -73.011719 L 26.257812 -73.011719 L 18.613281 0 L 26.8125 0 L 34.457031 -73.011719 L 48.75 -73.011719 L 49.636719 -81.210938 L 12.960938 -81.210938 Z M 12.078125 -73.011719 "/></g></g></g><g fill="#ff00ff" fill-opacity="1"><g transform="translate(307.161859, 102.292825)"><g><path d="M 8.308594 -37.117188 L 32.90625 -37.117188 L 33.570312 -44.097656 L 8.972656 -44.097656 Z M 8.308594 -37.117188 "/></g></g></g><g fill="#ff00ff" fill-opacity="1"><g transform="translate(340.618091, 102.292825)"><g><path d="M 8.308594 -37.117188 L 32.90625 -37.117188 L 33.570312 -44.097656 L 8.972656 -44.097656 Z M 8.308594 -37.117188 "/></g></g></g><g fill="#00ffff" fill-opacity="1"><g transform="translate(0.903717, 102.292825)"><g><path d="M 20.941406 -47.753906 C 19.054688 -47.753906 17.617188 -49.191406 17.949219 -51.074219 L 19.941406 -69.6875 C 20.054688 -71.574219 21.714844 -73.011719 23.597656 -73.011719 L 29.804688 -73.011719 C 31.6875 -73.011719 32.90625 -71.574219 32.796875 -69.6875 L 31.132812 -54.730469 L 39.332031 -54.730469 L 40.992188 -69.800781 C 41.324219 -72.792969 40.441406 -75.5625 38.335938 -77.886719 C 36.339844 -80.105469 33.792969 -81.210938 30.691406 -81.210938 L 24.484375 -81.210938 C 18.28125 -81.210938 12.296875 -76.003906 11.742188 -69.6875 L 9.75 -51.074219 C 9.195312 -44.539062 13.738281 -39.554688 20.054688 -39.554688 L 26.257812 -39.554688 C 28.140625 -39.554688 29.582031 -38.113281 29.25 -36.230469 L 26.589844 -11.523438 C 26.480469 -9.640625 24.816406 -8.199219 22.933594 -8.199219 L 16.730469 -8.199219 C 14.847656 -8.199219 13.628906 -9.640625 13.738281 -11.523438 L 15.398438 -26.480469 L 7.203125 -26.480469 L 5.539062 -11.523438 C 4.984375 -4.984375 9.640625 0 15.953125 0 L 22.160156 0 C 28.472656 0 34.234375 -4.984375 34.789062 -11.523438 L 37.449219 -36.230469 C 38.003906 -42.542969 33.460938 -47.753906 27.144531 -47.753906 Z M 20.941406 -47.753906 "/></g></g></g><g fill="#00ffff" fill-opacity="1"><g transform="translate(39.012798, 102.292825)"><g><path d="M 35.34375 -17.503906 L 40.882812 -69.6875 C 41.4375 -76.003906 37.003906 -81.210938 30.691406 -81.210938 L 24.375 -81.210938 C 18.058594 -81.210938 12.296875 -76.003906 11.742188 -69.6875 L 5.539062 -11.523438 C 4.984375 -4.984375 9.527344 0 15.84375 0 L 22.160156 0 C 27.144531 0 31.6875 -3.214844 33.792969 -7.644531 L 40.328125 -2.105469 L 41.4375 -12.519531 Z M 27.808594 -23.820312 L 22.046875 -28.804688 L 20.941406 -18.390625 L 26.703125 -13.515625 L 26.480469 -11.523438 C 26.367188 -9.640625 24.707031 -8.199219 22.933594 -8.199219 L 16.617188 -8.199219 C 14.847656 -8.199219 13.628906 -9.640625 13.738281 -11.523438 L 19.941406 -69.6875 C 20.054688 -71.574219 21.714844 -73.011719 23.488281 -73.011719 L 29.804688 -73.011719 C 31.578125 -73.011719 32.796875 -71.574219 32.683594 -69.6875 Z M 27.808594 -23.820312 "/></g></g></g><g fill="#00ffff" fill-opacity="1"><g transform="translate(83.658033, 102.292825)"><g><path d="M 21.160156 -81.210938 L 12.960938 -81.210938 L 4.433594 0 L 33.570312 0 L 34.347656 -8.199219 L 13.40625 -8.199219 Z M 21.160156 -81.210938 "/></g></g></g><g fill="#00ffff" fill-opacity="1"><g transform="translate(121.656337, 102.292825)"><g><path d="M 11.742188 -69.910156 L 18.613281 -69.910156 L 19.832031 -81.210938 L 12.960938 -81.210938 Z M 11.742188 -69.910156 "/></g></g></g><g fill="#00ffff" fill-opacity="1"><g transform="translate(137.387413, 102.292825)"><g><path d="M 12.078125 -73.011719 L 26.257812 -73.011719 L 18.613281 0 L 26.8125 0 L 34.457031 -73.011719 L 48.75 -73.011719 L 49.636719 -81.210938 L 12.960938 -81.210938 Z M 12.078125 -73.011719 "/></g></g></g><g fill="#00ffff" fill-opacity="1"><g transform="translate(182.918911, 102.292825)"><g><path d="M 40.550781 -81.210938 L 12.960938 -81.210938 L 4.433594 0 L 32.019531 0 L 32.796875 -8.199219 L 13.40625 -8.199219 L 16.730469 -39.554688 L 29.25 -39.554688 L 30.136719 -47.753906 L 17.617188 -47.753906 L 20.273438 -73.011719 L 39.664062 -73.011719 Z M 40.550781 -81.210938 "/></g></g></g><g fill="#00ffff" fill-opacity="1"><g transform="translate(219.366265, 102.292825)"><g><path d="M 20.941406 -47.753906 C 19.054688 -47.753906 17.617188 -49.191406 17.949219 -51.074219 L 19.941406 -69.6875 C 20.054688 -71.574219 21.714844 -73.011719 23.597656 -73.011719 L 29.804688 -73.011719 C 31.6875 -73.011719 32.90625 -71.574219 32.796875 -69.6875 L 31.132812 -54.730469 L 39.332031 -54.730469 L 40.992188 -69.800781 C 41.324219 -72.792969 40.441406 -75.5625 38.335938 -77.886719 C 36.339844 -80.105469 33.792969 -81.210938 30.691406 -81.210938 L 24.484375 -81.210938 C 18.28125 -81.210938 12.296875 -76.003906 11.742188 -69.6875 L 9.75 -51.074219 C 9.195312 -44.539062 13.738281 -39.554688 20.054688 -39.554688 L 26.257812 -39.554688 C 28.140625 -39.554688 29.582031 -38.113281 29.25 -36.230469 L 26.589844 -11.523438 C 26.480469 -9.640625 24.816406 -8.199219 22.933594 -8.199219 L 16.730469 -8.199219 C 14.847656 -8.199219 13.628906 -9.640625 13.738281 -11.523438 L 15.398438 -26.480469 L 7.203125 -26.480469 L 5.539062 -11.523438 C 4.984375 -4.984375 9.640625 0 15.953125 0 L 22.160156 0 C 28.472656 0 34.234375 -4.984375 34.789062 -11.523438 L 37.449219 -36.230469 C 38.003906 -42.542969 33.460938 -47.753906 27.144531 -47.753906 Z M 20.941406 -47.753906 "/></g></g></g><g fill="#00ffff" fill-opacity="1"><g transform="translate(257.475347, 102.292825)"><g><path d="M 12.078125 -73.011719 L 26.257812 -73.011719 L 18.613281 0 L 26.8125 0 L 34.457031 -73.011719 L 48.75 -73.011719 L 49.636719 -81.210938 L 12.960938 -81.210938 Z M 12.078125 -73.011719 "/></g></g></g><g fill="#00ffff" fill-opacity="1"><g transform="translate(303.006845, 102.292825)"><g><path d="M 8.308594 -37.117188 L 32.90625 -37.117188 L 33.570312 -44.097656 L 8.972656 -44.097656 Z M 8.308594 -37.117188 "/></g></g></g><g fill="#00ffff" fill-opacity="1"><g transform="translate(336.463076, 102.292825)"><g><path d="M 8.308594 -37.117188 L 32.90625 -37.117188 L 33.570312 -44.097656 L 8.972656 -44.097656 Z M 8.308594 -37.117188 "/></g></g></g><g fill="#ff1616" fill-opacity="1"><g transform="translate(2.981224, 102.292825)"><g><path d="M 20.941406 -47.753906 C 19.054688 -47.753906 17.617188 -49.191406 17.949219 -51.074219 L 19.941406 -69.6875 C 20.054688 -71.574219 21.714844 -73.011719 23.597656 -73.011719 L 29.804688 -73.011719 C 31.6875 -73.011719 32.90625 -71.574219 32.796875 -69.6875 L 31.132812 -54.730469 L 39.332031 -54.730469 L 40.992188 -69.800781 C 41.324219 -72.792969 40.441406 -75.5625 38.335938 -77.886719 C 36.339844 -80.105469 33.792969 -81.210938 30.691406 -81.210938 L 24.484375 -81.210938 C 18.28125 -81.210938 12.296875 -76.003906 11.742188 -69.6875 L 9.75 -51.074219 C 9.195312 -44.539062 13.738281 -39.554688 20.054688 -39.554688 L 26.257812 -39.554688 C 28.140625 -39.554688 29.582031 -38.113281 29.25 -36.230469 L 26.589844 -11.523438 C 26.480469 -9.640625 24.816406 -8.199219 22.933594 -8.199219 L 16.730469 -8.199219 C 14.847656 -8.199219 13.628906 -9.640625 13.738281 -11.523438 L 15.398438 -26.480469 L 7.203125 -26.480469 L 5.539062 -11.523438 C 4.984375 -4.984375 9.640625 0 15.953125 0 L 22.160156 0 C 28.472656 0 34.234375 -4.984375 34.789062 -11.523438 L 37.449219 -36.230469 C 38.003906 -42.542969 33.460938 -47.753906 27.144531 -47.753906 Z M 20.941406 -47.753906 "/></g></g></g><g fill="#ff1616" fill-opacity="1"><g transform="translate(41.090305, 102.292825)"><g><path d="M 35.34375 -17.503906 L 40.882812 -69.6875 C 41.4375 -76.003906 37.003906 -81.210938 30.691406 -81.210938 L 24.375 -81.210938 C 18.058594 -81.210938 12.296875 -76.003906 11.742188 -69.6875 L 5.539062 -11.523438 C 4.984375 -4.984375 9.527344 0 15.84375 0 L 22.160156 0 C 27.144531 0 31.6875 -3.214844 33.792969 -7.644531 L 40.328125 -2.105469 L 41.4375 -12.519531 Z M 27.808594 -23.820312 L 22.046875 -28.804688 L 20.941406 -18.390625 L 26.703125 -13.515625 L 26.480469 -11.523438 C 26.367188 -9.640625 24.707031 -8.199219 22.933594 -8.199219 L 16.617188 -8.199219 C 14.847656 -8.199219 13.628906 -9.640625 13.738281 -11.523438 L 19.941406 -69.6875 C 20.054688 -71.574219 21.714844 -73.011719 23.488281 -73.011719 L 29.804688 -73.011719 C 31.578125 -73.011719 32.796875 -71.574219 32.683594 -69.6875 Z M 27.808594 -23.820312 "/></g></g></g><g fill="#ff1616" fill-opacity="1"><g transform="translate(85.73554, 102.292825)"><g><path d="M 21.160156 -81.210938 L 12.960938 -81.210938 L 4.433594 0 L 33.570312 0 L 34.347656 -8.199219 L 13.40625 -8.199219 Z M 21.160156 -81.210938 "/></g></g></g><g fill="#ff1616" fill-opacity="1"><g transform="translate(123.733845, 102.292825)"><g><path d="M 11.742188 -69.910156 L 18.613281 -69.910156 L 19.832031 -81.210938 L 12.960938 -81.210938 Z M 11.742188 -69.910156 "/></g></g></g><g fill="#ff1616" fill-opacity="1"><g transform="translate(139.46492, 102.292825)"><g><path d="M 12.078125 -73.011719 L 26.257812 -73.011719 L 18.613281 0 L 26.8125 0 L 34.457031 -73.011719 L 48.75 -73.011719 L 49.636719 -81.210938 L 12.960938 -81.210938 Z M 12.078125 -73.011719 "/></g></g></g><g fill="#ff1616" fill-opacity="1"><g transform="translate(184.996418, 102.292825)"><g><path d="M 40.550781 -81.210938 L 12.960938 -81.210938 L 4.433594 0 L 32.019531 0 L 32.796875 -8.199219 L 13.40625 -8.199219 L 16.730469 -39.554688 L 29.25 -39.554688 L 30.136719 -47.753906 L 17.617188 -47.753906 L 20.273438 -73.011719 L 39.664062 -73.011719 Z M 40.550781 -81.210938 "/></g></g></g><g fill="#ff1616" fill-opacity="1"><g transform="translate(221.443772, 102.292825)"><g><path d="M 20.941406 -47.753906 C 19.054688 -47.753906 17.617188 -49.191406 17.949219 -51.074219 L 19.941406 -69.6875 C 20.054688 -71.574219 21.714844 -73.011719 23.597656 -73.011719 L 29.804688 -73.011719 C 31.6875 -73.011719 32.90625 -71.574219 32.796875 -69.6875 L 31.132812 -54.730469 L 39.332031 -54.730469 L 40.992188 -69.800781 C 41.324219 -72.792969 40.441406 -75.5625 38.335938 -77.886719 C 36.339844 -80.105469 33.792969 -81.210938 30.691406 -81.210938 L 24.484375 -81.210938 C 18.28125 -81.210938 12.296875 -76.003906 11.742188 -69.6875 L 9.75 -51.074219 C 9.195312 -44.539062 13.738281 -39.554688 20.054688 -39.554688 L 26.257812 -39.554688 C 28.140625 -39.554688 29.582031 -38.113281 29.25 -36.230469 L 26.589844 -11.523438 C 26.480469 -9.640625 24.816406 -8.199219 22.933594 -8.199219 L 16.730469 -8.199219 C 14.847656 -8.199219 13.628906 -9.640625 13.738281 -11.523438 L 15.398438 -26.480469 L 7.203125 -26.480469 L 5.539062 -11.523438 C 4.984375 -4.984375 9.640625 0 15.953125 0 L 22.160156 0 C 28.472656 0 34.234375 -4.984375 34.789062 -11.523438 L 37.449219 -36.230469 C 38.003906 -42.542969 33.460938 -47.753906 27.144531 -47.753906 Z M 20.941406 -47.753906 "/></g></g></g><g fill="#ff1616" fill-opacity="1"><g transform="translate(259.552854, 102.292825)"><g><path d="M 12.078125 -73.011719 L 26.257812 -73.011719 L 18.613281 0 L 26.8125 0 L 34.457031 -73.011719 L 48.75 -73.011719 L 49.636719 -81.210938 L 12.960938 -81.210938 Z M 12.078125 -73.011719 "/></g></g></g><g fill="#ff1616" fill-opacity="1"><g transform="translate(305.084352, 102.292825)"><g><path d="M 8.308594 -37.117188 L 32.90625 -37.117188 L 33.570312 -44.097656 L 8.972656 -44.097656 Z M 8.308594 -37.117188 "/></g></g></g><g fill="#ff1616" fill-opacity="1"><g transform="translate(338.540583, 102.292825)"><g><path d="M 8.308594 -37.117188 L 32.90625 -37.117188 L 33.570312 -44.097656 L 8.972656 -44.097656 Z M 8.308594 -37.117188 "/></g></g></g></svg>